<svg xmlns="http://www.w3.org/2000/svg" xmlns:xlink="http://www.w3.org/1999/xlink" id="Layer_1" x="0px" y="0px" viewBox="-504 408.1 269.4 35.9" style="enable-background:new -504 408.1 269.4 35.9;" xml:space="preserve"> <style type="text/css"> .st0{display:none;} .st1{display:inline;fill:#002D62;} .st2{display:inline;fill:#FFCF01;} .st3{fill:#FFFFFF;} .st4{fill:#002D62;} .st5{fill:#FFFFFF;stroke:#FFFFFF;stroke-width:5.000000e-02;stroke-miterlimit:10;} .st6{fill:#FFCF01;} .st7{fill:none;stroke:#FFFFFF;stroke-width:0.7465;stroke-miterlimit:10;} </style> <g id="CoE" class="st0"> <path class="st1" d="M-1344.8,1228L-1344.8,1228l6,19.3h2.6l6.1-19.3h0.1v19.3h2.8v-21.7h-4.6l-5.5,18.2h-0.1l-5.5-18.2h-4.5v21.7 h2.6V1228L-1344.8,1228z"></path> <rect x="-1323.4" y="1225.6" class="st1" width="2.8" height="21.7"></rect> <path class="st1" d="M-1304.4,1231.6c0.3-4.2-1.4-6.4-5.7-6.4c-4.3,0-7,1.7-7,7.9v6.1c0,8.4,4.1,8.6,6.8,8.6c1.4,0,6.2,0,6.1-6.8 h-2.9c0,4.2-2.6,4.5-3.4,4.5c-2.1,0-3.9-0.6-3.9-5.9v-5.9c0-3.7,0.5-4.3,0.6-4.5c0.1-0.3,1-1.7,3.3-1.7c0.6,0,1.9,0.2,2.4,0.9 c0.6,0.7,0.7,1.9,0.6,3.1L-1304.4,1231.6L-1304.4,1231.6z"></path> <path class="st1" d="M-1298.5,1247.3v-9.9h7.6v9.9h2.8v-21.7h-2.8v9.4h-7.6v-9.4h-2.8v21.7H-1298.5z"></path> <rect x="-1284.1" y="1225.6" class="st1" width="2.8" height="21.7"></rect> <path class="st1" d="M-1264.2,1231.4c0.2-4.5-2-6.2-6.7-6.2c-4.6,0-6.8,2.8-6.8,7.1v7.1c0,6,2.2,8.4,6.8,8.4c2.8,0,4.9-0.7,6.6-1.6 v-10.6h-6.7v2.4h4v6.5c-0.6,0.4-1.9,1-3.9,1c-2.6,0-4-1.2-4-5.9v-7.4c0-4.5,3.1-4.7,4-4.7c2.8,0,3.8,1.4,3.8,3.9 C-1267.1,1231.4-1264.2,1231.4-1264.2,1231.4z"></path> <path class="st1" d="M-1262.4,1247.3h2.8l1.6-5.2h8.4l1.6,5.2h3.1l-7.1-21.7h-3.5L-1262.4,1247.3z M-1250.4,1239.7h-6.9l3.3-11.5 h0.1L-1250.4,1239.7z"></path> <path class="st1" d="M-1230.9,1225.6v18.5h-0.1l-8.4-18.5h-3.9v21.7h2.5v-18.8h0.1l8.5,18.8h3.8v-21.7H-1230.9z"></path> <path class="st1" d="M-1205.2,1247.3v-2.4h-8.6v-7.5h7.8v-2.4h-7.8v-7h8.4v-2.4h-11.2v21.7L-1205.2,1247.3L-1205.2,1247.3z"></path> <path class="st1" d="M-1190.3,1225.6v18.5h-0.1l-8.4-18.5h-3.9v21.7h2.5v-18.8h0.1l8.5,18.8h3.8v-21.7H-1190.3z"></path> <path class="st1" d="M-1170.9,1231.4c0.2-4.5-2-6.2-6.7-6.2c-4.6,0-6.8,2.8-6.8,7.1v7.1c0,6,2.2,8.4,6.8,8.4c2.8,0,4.9-0.7,6.6-1.6 v-10.6h-6.7v2.4h4v6.5c-0.6,0.4-1.9,1-3.9,1c-2.6,0-4-1.2-4-5.9v-7.4c0-4.5,3.1-4.7,4-4.7c2.8,0,3.8,1.4,3.8,3.9 C-1173.8,1231.4-1170.9,1231.4-1170.9,1231.4z"></path> <rect x="-1166.9" y="1225.6" class="st1" width="2.8" height="21.7"></rect> <path class="st1" d="M-1147.7,1225.6v18.5h-0.1l-8.4-18.5h-3.9v21.7h2.5v-18.8h0.1l8.5,18.8h3.8v-21.7H-1147.7z"></path> <path class="st1" d="M-1130.2,1247.3v-2.4h-8.6v-7.5h7.8v-2.4h-7.8v-7h8.4v-2.4h-11.2v21.7L-1130.2,1247.3L-1130.2,1247.3z"></path> <path class="st1" d="M-1116.6,1247.3v-2.4h-8.6v-7.5h7.8v-2.4h-7.8v-7h8.4v-2.4h-11.2v21.7L-1116.6,1247.3L-1116.6,1247.3z"></path> <path class="st1" d="M-1111.6,1228h4.2c2.1,0,2.9,1.7,2.9,3.3c0,1.9-1,3.6-2.9,3.6h-4.1L-1111.6,1228L-1111.6,1228z M-1108.3,1237.3c0.9,0,3.1,0.1,3.3,2.8c0.2,2.9,0.1,5.7,0.8,7.2h2.9c-0.4-1.4-0.7-4.7-0.7-5.7c-0.2-4.4-1-5.2-3.5-5.6v-0.1 c2.5-0.4,4-2.4,4-4.9c0-2.7-1.4-5.4-5.2-5.4h-7.5v21.7h2.8v-10H-1108.3z"></path> <rect x="-1098.6" y="1225.6" class="st1" width="2.8" height="21.7"></rect> <path class="st1" d="M-1079.4,1225.6v18.5h-0.1l-8.4-18.5h-3.9v21.7h2.5v-18.8h0.1l8.5,18.8h3.8v-21.7H-1079.4z"></path> <path class="st1" d="M-1060,1231.4c0.2-4.5-2-6.2-6.7-6.2c-4.6,0-6.8,2.8-6.8,7.1v7.1c0,6,2.2,8.4,6.8,8.4c2.8,0,4.9-0.7,6.6-1.6 v-10.6h-6.7v2.4h4v6.5c-0.6,0.4-1.9,1-3.9,1c-2.6,0-4-1.2-4-5.9v-7.4c0-4.5,3.1-4.7,4-4.7c2.8,0,3.8,1.4,3.8,3.9 C-1062.9,1231.4-1060,1231.4-1060,1231.4z"></path> </g> <g id="Common_Elements_to_CoE_Master" class="st0"> <path class="st2" d="M-1390.7,1254.1l-9.9-13.6v9.9h3.9v9.7h-18.2v-9.7h3.7v-15.2h-3.7v-9.7h14.3l9.9,13.7l9.9-13.7h14.3v9.7h-3.7 v15.2h3.7v9.7h-18.2v-9.7h3.9v-9.9L-1390.7,1254.1L-1390.7,1254.1z"></path> <path class="st1" d="M-1209.7,1260.1v-0.4c0.5,0,0.9-0.1,0.9-0.5c0-0.1,0-0.3-0.1-0.4l-0.2-0.7h-2.6l-0.2,0.6 c0,0.2-0.1,0.3-0.1,0.5c0,0.5,0.5,0.6,1,0.6v0.4h-3v-0.4c0.8,0,1-0.2,1.3-1l2-5.4l-0.1-0.2c0.8-0.3,1.1-0.4,1.5-0.7 c0.1,0.5,0.2,0.6,0.3,1.1l1.6,5c0.3,0.9,0.4,1.1,1.2,1.2v0.4L-1209.7,1260.1L-1209.7,1260.1L-1209.7,1260.1z M-1210.3,1254.2 l-1.1,3h2.1L-1210.3,1254.2L-1210.3,1254.2z M-1235.9,1258.5c-0.3,0.5-1.1,1.8-3.1,1.8c-2.2,0-3.6-1.6-3.6-3.8c0-2,1.2-3.9,3.7-3.9 c1.3,0,2,0.5,2.4,0.9l0.5-0.5v2.2l-0.3,0.1c-0.1-0.4-0.3-0.8-0.8-1.3c-0.2-0.2-0.8-0.7-1.5-0.7c-1.3,0-2.4,1.1-2.4,3 c0,1.6,0.9,3.1,2.6,3.1c1.3,0,1.8-0.7,2.1-1.3L-1235.9,1258.5L-1235.9,1258.5z M-1234.6,1260.1v-0.4c0.8-0.1,0.8-0.2,0.8-1 c0-0.3,0-0.5,0-0.8v-3.1c0-0.5,0-1,0-1.2c0-0.4-0.2-0.5-0.8-0.6v-0.4h3.1v0.4c-0.6,0.1-0.8,0.1-0.9,0.5c-0.1,0.2-0.1,0.8-0.1,1.2v1 c0.6,0,1.1,0.1,1.7,0.1c0.6,0,1.1,0,1.7-0.1v-1.2c0-1.3,0-1.4-1-1.5v-0.4h3.2v0.4c-0.9,0.1-0.9,0.1-0.9,1.5v3.1c0,0.3,0,1.2,0,1.4 c0,0.4,0.3,0.5,0.8,0.5v0.4h-3v-0.4c0.7-0.1,0.9-0.1,1-0.6c0-0.2,0-0.5,0-1v-1.3c-0.6,0-1.1-0.1-1.7-0.1c-0.6,0-1.1,0-1.8,0.1v1.3 c0,1.5,0,1.5,1,1.6v0.4L-1234.6,1260.1L-1234.6,1260.1z M-1225.6,1260.1v-0.4c0.7-0.1,0.9-0.2,0.9-0.9v-0.9v-3c0-1.5,0-1.6-0.9-1.7 v-0.4h3.1v0.4c-0.9,0.1-0.9,0.1-0.9,1.7v3c0,0.3,0,1.1,0,1.3c0,0.4,0.3,0.6,0.8,0.6v0.4L-1225.6,1260.1L-1225.6,1260.1 L-1225.6,1260.1z M-1246.5,1260.1v-0.4c0.7-0.1,0.9-0.2,0.9-0.9v-0.9v-3c0-1.5,0-1.6-0.9-1.7v-0.4h3v0.4c-0.9,0.1-0.9,0.1-0.9,1.7 v3c0,0.3,0,1.1,0,1.3c0.1,0.4,0.3,0.6,0.8,0.6v0.4L-1246.5,1260.1L-1246.5,1260.1L-1246.5,1260.1z M-1251.1,1260.1v-0.4 c0.9-0.1,0.9-0.1,0.9-1.5v-3.7l-2.6,5.6h-0.6l-2.4-5.7l-0.1,4.3c0,0.7,0.1,0.9,0.9,0.9v0.4h-2.5v-0.4c0.6,0,0.8-0.1,0.9-0.6 c0-0.2,0.1-0.8,0.1-1.2l0.1-3.1c0-0.2,0-0.6,0-0.8c0-0.7-0.1-0.8-0.8-0.8v-0.4h2.3l2.3,5.6l2.5-5.6h2.2v0.4 c-0.9,0.1-0.9,0.1-0.9,1.3v3c0,0.5,0,1.1,0,1.5c0,0.5,0.2,0.6,0.8,0.7v0.4L-1251.1,1260.1L-1251.1,1260.1L-1251.1,1260.1z M-1205.7,1260.1v-0.4c0.6,0,0.8,0,0.9-0.5c0.1-0.5,0.1-4.8,0.1-5.6c-0.4-0.4-0.6-0.4-1.1-0.5v-0.4h2.2c0.6,0.9,0.7,1.1,1.8,2.4 l2,2.5v-3.3c0-1.2,0-1.2-1.2-1.3v-0.4h2.9v0.4c-0.8,0-0.9,0.2-0.9,1.4l-0.1,5.7h-0.4l-0.7-0.8c-0.3-0.4-0.7-0.8-1-1.2l-2.9-3.6v3.8 c0,1.2,0.1,1.2,1.2,1.3v0.4L-1205.7,1260.1L-1205.7,1260.1z M-1267,1256.4c0,2.5-1.7,3.9-3.7,3.9c-2.1,0-3.8-1.5-3.8-3.9 c0-2,1.3-3.8,3.7-3.8C-1268.5,1252.6-1267,1254.2-1267,1256.4L-1267,1256.4z M-1270.6,1259.6c0.4,0,1-0.2,1.5-0.9 c0.5-0.8,0.6-1.5,0.6-2.5c0-0.9-0.3-1.8-0.8-2.3c-0.2-0.2-0.7-0.6-1.3-0.6s-1.1,0.4-1.3,0.6c-0.5,0.6-0.8,1.4-0.8,2.4 s0.1,1.7,0.7,2.5C-1271.6,1259.4-1271.1,1259.6-1270.6,1259.6L-1270.6,1259.6z M-1266.2,1259.7v0.4h3v-0.4 c-0.8-0.1-0.9-0.1-0.9-0.9v-2.1h0.8c0.8,0,1.3,0.1,1.3,0.9h0.4v-2.4h-0.4c0,0.8-0.3,0.9-1.2,0.9h-1v-2.5c0.3,0,0.4,0,0.9,0 c1.4,0,1.9,0,2.1,1.1h0.4l-0.1-1.8h-5.4v0.4c0.5,0.1,0.8,0.1,0.8,0.4c0,0.2,0.1,1,0.1,1.3v2.6c0,0.2,0,1.1,0,1.3 C-1265.4,1259.6-1265.5,1259.6-1266.2,1259.7L-1266.2,1259.7z M-1329.3,1260.1v-0.4c0.7-0.1,0.9-0.2,0.9-0.9v-0.9v-3 c0-1.5,0-1.6-0.9-1.7v-0.4h3v0.4c-0.9,0.1-0.9,0.1-0.9,1.7v3c0,0.3,0,1.1,0,1.3c0,0.4,0.3,0.6,0.8,0.6v0.4L-1329.3,1260.1 L-1329.3,1260.1z M-1297,1260.1v-0.4c0.7-0.1,0.9-0.2,0.9-0.9v-0.9v-3c0-1.5,0-1.6-0.9-1.7v-0.4h3v0.4c-0.9,0.1-0.9,0.1-0.9,1.7v3 c0,0.3,0,1.1,0,1.3c0,0.4,0.3,0.6,0.8,0.6v0.4L-1297,1260.1L-1297,1260.1z M-1338.3,1260.1v-0.4c0.6,0,0.8,0,0.9-0.5 c0.1-0.5,0.1-4.8,0.1-5.6c-0.4-0.4-0.6-0.4-1.1-0.5v-0.4h2.2c0.6,0.9,0.7,1.1,1.8,2.4l2.1,2.5v-3.3c0-1.2,0-1.2-1.2-1.3v-0.4h2.9 v0.4c-0.8,0-0.9,0.2-0.9,1.4l-0.1,5.7h-0.4l-0.6-0.8c-0.3-0.4-0.7-0.8-1-1.2l-2.9-3.6v3.8c0,1.2,0.1,1.2,1.2,1.3v0.4 L-1338.3,1260.1L-1338.3,1260.1z M-1303.1,1257.8h0.4c0.4,1.2,1.1,1.8,2.2,1.8c0.8,0,1.5-0.3,1.5-1.1c0-0.8-0.8-1.2-1.2-1.3 c-0.3-0.1-0.6-0.2-0.9-0.3c-0.6-0.2-1.7-0.7-1.7-2.1c0-1.4,1.1-2.1,2.3-2.1c0.5,0,1.1,0.1,1.7,0.5l0.4-0.3l0.2,2.2l-0.4,0.1 c-0.1-0.5-0.2-0.7-0.5-1.1c-0.4-0.5-0.8-0.7-1.4-0.7c-0.8,0-1.2,0.4-1.2,1c0,0.9,0.9,1.2,1.7,1.4c0.4,0.1,0.8,0.3,1.1,0.4 c0.6,0.3,1.1,1,1.1,1.9c0,1.3-1,2.3-2.6,2.3c-1,0-1.6-0.4-1.9-0.6l-0.6-0.4L-1303.1,1257.8L-1303.1,1257.8z M-1291,1260.1v-0.3 c0.7,0,0.9-0.3,0.9-0.8v-5.4h-0.9c-0.8,0-1.4,0-1.4,1.3h-0.4l0.1-2.1h6.7l0.1,2.1h-0.4c-0.1-1.3-0.6-1.3-1.4-1.3h-0.9v5.4 c0,0.6,0.2,0.8,0.9,0.8v0.3H-1291L-1291,1260.1z M-1343.9,1252.7v0.4c-1,0.1-1,0.1-1,1.7v1.7c0,0.9,0,1.7,0.5,2.4 c0.4,0.5,1,0.6,1.3,0.6c1,0,1.6-0.5,1.9-1.4c0.2-0.7,0.2-2,0.2-2.8c0-0.3,0-1.1,0-1.4c0-0.7-0.4-0.7-1-0.7v-0.4h2.8v0.4 c-0.7,0-0.8,0.1-0.9,0.9c0,0.2-0.1,2.2-0.1,2.5c0,0.6-0.1,1.1-0.2,1.6c-0.5,2-2.4,2.1-2.9,2.1c-0.4,0-1.2-0.1-1.9-0.5 c-1.1-0.7-1.1-1.8-1.1-3v-1.7c0-0.8,0-1.1,0-1.3c-0.1-0.5-0.3-0.5-0.8-0.6v-0.4L-1343.9,1252.7L-1343.9,1252.7z M-1317.9,1252.7 v0.4c-0.7,0.1-0.8,0.3-1.4,1.8l-2.2,5.3h-0.4l-2-5.4c-0.5-1.4-0.6-1.6-1.3-1.7v-0.4h3.5v0.4c-0.6,0-1,0-1,0.5c0,0.2,0.1,0.4,0.3,1 l1.3,3.7l1.5-3.9c0.1-0.3,0.2-0.6,0.2-0.8c0-0.5-0.5-0.6-1-0.6v-0.4L-1317.9,1252.7L-1317.9,1252.7z M-1283.1,1260.1v-0.4 c0.6-0.1,0.8-0.1,0.9-0.2c0.2-0.2,0.2-0.4,0.2-1.2v-1.3l-1.9-3c-0.5-0.8-0.5-0.8-1.2-0.8v-0.4h3.8v0.4c-0.8,0-1.1,0-1.1,0.4 c0,0.2,0.1,0.4,0.3,0.7l1.1,1.8l1-1.8c0.2-0.4,0.3-0.6,0.3-0.8c0-0.4-0.3-0.4-0.8-0.4v-0.4h2.9v0.4c-0.7,0-1,0.2-1.8,1.6l-1.1,1.9 v1.5c0,1.3,0,1.4,1.1,1.5v0.4L-1283.1,1260.1L-1283.1,1260.1z M-1311.6,1260.1c0-0.5,0.1-1.4,0.2-1.9h-0.4c-0.3,1.3-1,1.2-2.1,1.2 c-1,0-1.2-0.3-1.2-0.7v-2.1h0.8c0.9,0,1.2,0.1,1.2,0.9h0.4v-2.4h-0.3c-0.1,0.7-0.2,0.9-1.2,0.9h-0.8v-2.6h0.9 c1.2,0,1.7,0.1,1.9,1.1h0.3v-1.7h-5.2v0.4c0.5,0.1,0.8,0.1,0.8,0.4c0.1,0.2,0.1,1,0.1,1.3v2.6c0,0.2,0,1.1,0,1.3 c0,0.8-0.1,0.9-0.9,0.9v0.4L-1311.6,1260.1L-1311.6,1260.1z M-1214.4,1256.9v0.4c-0.7,0-0.7,0.2-0.7,1.6v0.6 c-0.6,0.4-1.4,0.9-2.8,0.9c-2.5,0-3.7-1.9-3.7-3.8c0-2.3,1.6-3.9,3.6-3.9c1.2,0,2,0.5,2.6,0.8l0.4-0.4v2.2l-0.3,0.1 c-0.2-0.4-0.4-0.9-0.9-1.5c-0.2-0.2-0.7-0.5-1.5-0.5c-1.3,0-2.3,1.1-2.3,3.2c0,1.7,0.8,3.1,2.3,3.1c0.8,0,1.2-0.6,1.3-0.6 c0.1-0.2,0.2-0.4,0.1-0.7c0-0.9-0.2-1-1-1v-0.4L-1214.4,1256.9L-1214.4,1256.9z M-1308.2,1256.1c0.2,0,0.5,0.1,0.7,0.1 c0.8,0,1.5-0.7,1.5-1.2c0-0.8-0.4-1.6-1.7-1.6c-0.2,0-0.3,0-0.4,0L-1308.2,1256.1L-1308.2,1256.1z M-1308.2,1257.7 c0,1.7,0,1.9,0.9,1.9v0.4h-3.1v-0.4c0.8-0.1,0.9-0.2,0.9-1c0-0.3,0-0.6,0-0.9v-2.7c0-0.9,0-1.2,0-1.4c-0.1-0.4-0.3-0.5-0.9-0.5 v-0.4h3.3c1.8,0,2.4,0.9,2.4,1.9c0,0.7-0.4,1.6-1.5,1.9l1.3,2.3c0.5,0.9,0.7,1.1,1.3,1.1v0.2c-0.2,0-0.3,0-0.5,0 c-1.4,0-2-0.5-2.5-1.7l-0.4-0.9c-0.4-0.9-0.6-0.9-1.3-0.9L-1308.2,1257.7L-1308.2,1257.7z"></path> </g> <g id="Layer_2"> </g> <g id="Common_Elements_to_Departments"> <path class="st3" d="M-319.6,443.9v-0.3c0.4,0,0.7-0.1,0.7-0.4c0-0.1,0-0.2-0.1-0.3l-0.2-0.6h-2.1l-0.2,0.5c0,0.1-0.1,0.2-0.1,0.4 c0,0.4,0.4,0.4,0.8,0.5v0.3h-2.4v-0.3c0.6,0,0.8-0.2,1-0.8l1.6-4.4l-0.1-0.1c0.7-0.2,0.9-0.3,1.2-0.5c0.1,0.4,0.1,0.4,0.3,0.9 l1.3,4c0.2,0.7,0.3,0.9,1,1v0.3h-2.7L-319.6,443.9L-319.6,443.9z M-320.1,439.2l-0.9,2.4h1.7L-320.1,439.2L-320.1,439.2z M-340.6,442.6c-0.3,0.4-0.9,1.5-2.5,1.5c-1.8,0-2.9-1.3-2.9-3c0-1.6,1-3.2,3-3.2c1,0,1.6,0.4,1.9,0.7l0.4-0.4v1.8l-0.3,0.1 c-0.1-0.3-0.2-0.6-0.6-1c-0.2-0.2-0.6-0.6-1.2-0.6c-1.1,0-1.9,0.9-1.9,2.4c0,1.3,0.7,2.5,2,2.5c1,0,1.4-0.6,1.7-1L-340.6,442.6 L-340.6,442.6z M-339.6,443.9v-0.3c0.7-0.1,0.7-0.2,0.7-0.8c0-0.2,0-0.4,0-0.6v-2.5c0-0.4,0-0.8,0-0.9c0-0.4-0.2-0.4-0.7-0.4v-0.3 h2.5v0.3c-0.5,0.1-0.7,0.1-0.7,0.4c0,0.2-0.1,0.6-0.1,1v0.8c0.5,0,0.9,0,1.4,0s0.9,0,1.4,0v-1c0-1.1,0-1.1-0.8-1.2v-0.3h2.5v0.3 c-0.7,0.1-0.7,0.1-0.7,1.2v2.5c0,0.2,0,1,0,1.1c0,0.3,0.2,0.4,0.6,0.4v0.3h-2.5v-0.3c0.6-0.1,0.7-0.1,0.8-0.5c0-0.2,0-0.4,0-0.8 v-1.1c-0.5,0-0.9,0-1.3,0c-0.5,0-0.9,0-1.4,0v1.1c0,1.2,0,1.2,0.8,1.3v0.3H-339.6L-339.6,443.9z M-332.3,443.9v-0.3 c0.6-0.1,0.7-0.1,0.7-0.8v-0.7v-2.4c0-1.2,0-1.3-0.7-1.4V438h2.4v0.3c-0.7,0.1-0.7,0.1-0.7,1.4v2.4c0,0.2,0,0.9,0,1 c0,0.4,0.2,0.4,0.7,0.5v0.3H-332.3L-332.3,443.9z M-349.1,443.9v-0.3c0.6-0.1,0.7-0.1,0.7-0.8v-0.7v-2.4c0-1.2,0-1.3-0.7-1.4V438 h2.4v0.3c-0.7,0.1-0.7,0.1-0.7,1.4v2.4c0,0.2,0,0.9,0,1c0,0.4,0.2,0.4,0.7,0.5v0.3H-349.1L-349.1,443.9z M-352.8,443.9v-0.3 c0.7,0,0.7-0.1,0.7-1.2v-2.9l-2.1,4.5h-0.4l-1.9-4.6v3.5c0,0.6,0.1,0.7,0.7,0.7v0.3h-2v-0.3c0.5,0,0.7-0.1,0.7-0.5 c0-0.2,0-0.7,0.1-1l0.1-2.5c0-0.2,0-0.5,0-0.7c0-0.6-0.1-0.6-0.6-0.6V438h1.8l1.8,4.5l2-4.5h1.8v0.3c-0.7,0-0.7,0.1-0.7,1v2.4 c0,0.4,0,0.9,0,1.2c0,0.4,0.2,0.5,0.7,0.6v0.3L-352.8,443.9L-352.8,443.9z M-316.5,443.9v-0.3c0.5,0,0.7,0,0.7-0.4 c0.1-0.4,0.1-3.9,0.1-4.5c-0.3-0.3-0.5-0.4-0.8-0.4V438h1.8c0.5,0.7,0.6,0.9,1.5,1.9l1.6,2v-2.6c0-0.9,0-1-1-1V438h2.3v0.3 c-0.6,0-0.7,0.1-0.7,1.1l-0.1,4.5h-0.4l-0.5-0.7c-0.3-0.3-0.5-0.7-0.8-1l-2.3-2.9v3c0,1,0.1,1,1,1.1v0.3h-2.4L-316.5,443.9 L-316.5,443.9z M-365.5,440.9c0,2-1.4,3.1-2.9,3.1c-1.7,0-3-1.2-3-3.1c0-1.6,1.1-3.1,3-3C-366.7,437.9-365.5,439.2-365.5,440.9 L-365.5,440.9z M-368.4,443.5c0.3,0,0.8-0.2,1.2-0.7c0.4-0.6,0.5-1.2,0.5-2s-0.2-1.4-0.7-1.9c-0.2-0.2-0.6-0.5-1-0.5 c-0.5,0-0.9,0.3-1,0.5c-0.4,0.5-0.6,1.1-0.6,1.9s0.1,1.3,0.5,2C-369.2,443.3-368.7,443.5-368.4,443.5L-368.4,443.5z M-364.9,443.6 v0.3h2.4v-0.3c-0.6-0.1-0.7-0.1-0.7-0.8v-1.7h0.6c0.7,0,1,0.1,1,0.7h0.3v-1.9h-0.3c0,0.6-0.2,0.7-0.9,0.7h-0.8v-2 c0.2,0,0.3,0,0.7,0c1.1,0,1.5,0,1.7,0.9h0.3l-0.1-1.4h-4.3v0.3c0.4,0,0.6,0.1,0.7,0.3c0,0.2,0,0.8,0,1.1v2.1c0,0.2,0,0.9,0,1 C-364.2,443.5-364.3,443.5-364.9,443.6L-364.9,443.6z M-415.3,443.9v-0.3c0.6-0.1,0.7-0.1,0.7-0.8V442v-2.4c0-1.2,0-1.3-0.7-1.4 v-0.3h2.4v0.3c-0.7,0.2-0.7,0.2-0.7,1.4v2.4c0,0.2,0,0.9,0,1c0,0.4,0.2,0.4,0.7,0.5v0.3L-415.3,443.9L-415.3,443.9z M-389.5,443.9 v-0.3c0.6-0.1,0.7-0.1,0.7-0.8V442v-2.4c0-1.2,0-1.3-0.7-1.4v-0.3h2.4v0.3c-0.7,0.1-0.7,0.1-0.7,1.4v2.4c0,0.2,0,0.9,0,1 c0,0.4,0.2,0.4,0.7,0.5v0.3L-389.5,443.9L-389.5,443.9z M-422.5,443.9v-0.3c0.5,0,0.7,0,0.7-0.4c0.1-0.4,0.1-3.9,0.1-4.5 c-0.3-0.3-0.5-0.4-0.9-0.4V438h1.8c0.5,0.7,0.6,0.9,1.5,1.9l1.6,2v-2.6c0-0.9,0-1-1-1V438h2.3v0.3c-0.6,0-0.7,0.1-0.7,1.1l-0.1,4.5 h-0.3l-0.5-0.7c-0.3-0.3-0.5-0.7-0.8-1l-2.3-2.9v3c0,0.9,0.1,1,1,1.1v0.3h-2.4L-422.5,443.9L-422.5,443.9z M-394.3,442h0.3 c0.3,1,0.9,1.5,1.7,1.5c0.6,0,1.2-0.3,1.2-0.9c0-0.7-0.6-0.9-0.9-1c-0.2-0.1-0.5-0.2-0.7-0.3c-0.5-0.2-1.4-0.5-1.4-1.7 c0-1.1,0.9-1.7,1.9-1.7c0.4,0,0.8,0.1,1.3,0.4l0.4-0.3l0.2,1.7l-0.3,0.1c-0.1-0.4-0.2-0.6-0.4-0.9c-0.3-0.4-0.7-0.5-1.1-0.5 c-0.6,0-1,0.3-1,0.8c0,0.7,0.7,0.9,1.3,1.1c0.3,0.1,0.6,0.2,0.8,0.3c0.5,0.3,0.8,0.8,0.8,1.5c0,1-0.8,1.9-2.1,1.9 c-0.8,0-1.3-0.3-1.5-0.5l-0.5-0.4L-394.3,442L-394.3,442z M-384.7,443.9v-0.2c0.5,0,0.7-0.2,0.7-0.7v-4.3h-0.7c-0.7,0-1.1,0-1.2,1 h-0.3v-1.6h5.3l0.1,1.6h-0.3c-0.1-1-0.5-1-1.2-1h-0.7v4.3c0,0.5,0.1,0.7,0.7,0.7v0.2L-384.7,443.9L-384.7,443.9z M-427,438v0.3 c-0.8,0.1-0.8,0.1-0.8,1.3v1.4c0,0.7,0,1.3,0.4,1.9c0.3,0.4,0.8,0.5,1.1,0.5c0.8,0,1.3-0.4,1.5-1.1c0.2-0.5,0.2-1.6,0.2-2.3 c0-0.2,0-0.9,0-1.1c0-0.5-0.3-0.6-0.8-0.6V438h2.2v0.3c-0.6,0-0.7,0.1-0.7,0.7c0,0.1-0.1,1.8-0.1,2c0,0.4,0,0.9-0.1,1.3 c-0.4,1.6-1.9,1.7-2.3,1.7c-0.3,0-1-0.1-1.5-0.4c-0.9-0.6-0.9-1.5-0.9-2.4v-1.3c0-0.6,0-0.9,0-1.1c-0.1-0.4-0.2-0.4-0.7-0.5V438 H-427L-427,438z M-406.2,438v0.3c-0.6,0.1-0.6,0.2-1.1,1.4l-1.8,4.3h-0.3l-1.6-4.3c-0.4-1.1-0.4-1.2-1-1.3v-0.3h2.8v0.3 c-0.5,0-0.8,0-0.8,0.4c0,0.2,0,0.3,0.2,0.8l1,3l1.2-3.1c0.1-0.2,0.2-0.5,0.2-0.6c0-0.4-0.4-0.4-0.8-0.4v-0.3h2L-406.2,438 L-406.2,438z M-378.3,443.9v-0.3c0.5,0,0.6-0.1,0.8-0.2c0.1-0.1,0.1-0.3,0.1-0.9v-1l-1.6-2.4c-0.4-0.6-0.4-0.6-1-0.7v-0.3h3.1v0.3 c-0.6,0-0.9,0-0.9,0.3c0,0.2,0.1,0.3,0.3,0.6l0.9,1.5l0.8-1.5c0.1-0.3,0.2-0.5,0.2-0.6c0-0.3-0.2-0.3-0.7-0.3v-0.3h2.3v0.3 c-0.6,0-0.8,0.2-1.4,1.3l-0.9,1.5v1.2c0,1.1,0,1.1,0.9,1.2v0.3H-378.3L-378.3,443.9z M-401.1,443.9c0-0.4,0.1-1.1,0.1-1.5h-0.3 c-0.2,1.1-0.8,1-1.6,1c-0.8,0-0.9-0.2-0.9-0.6v-1.7h0.6c0.7,0,0.9,0.1,0.9,0.7h0.3v-1.9h-0.3c-0.1,0.5-0.2,0.7-0.9,0.7h-0.6v-2.1 h0.7c1,0,1.4,0.1,1.5,0.9h0.3V438h-4.3v0.3c0.4,0,0.6,0.1,0.7,0.3c0,0.2,0,0.8,0,1.1v2.1c0,0.2,0,0.9,0,1c0,0.6-0.1,0.7-0.7,0.8 v0.3H-401.1L-401.1,443.9z M-323.4,441.3v0.3c-0.5,0-0.5,0.2-0.6,1.3v0.4c-0.5,0.3-1.1,0.7-2.3,0.7c-2,0-3-1.5-3-3.1 c0-1.9,1.3-3.1,2.9-3.1c1,0,1.6,0.4,2.1,0.7l0.3-0.3v1.8h-0.2c-0.1-0.4-0.3-0.8-0.7-1.2c-0.2-0.2-0.6-0.4-1.2-0.4 c-1,0-1.9,0.9-1.9,2.6c0,1.3,0.7,2.5,1.8,2.5c0.7,0,1-0.5,1-0.5c0.1-0.2,0.1-0.3,0.1-0.6c0-0.8-0.1-0.8-0.8-0.8v-0.3H-323.4 L-323.4,441.3z M-398.4,440.7c0.2,0,0.4,0.1,0.5,0.1c0.7,0,1.2-0.5,1.2-1c0-0.7-0.3-1.3-1.4-1.3c-0.2,0-0.2,0-0.4,0L-398.4,440.7 L-398.4,440.7L-398.4,440.7z M-398.4,442c0,1.3,0,1.5,0.7,1.5v0.3h-2.5v-0.3c0.6-0.1,0.7-0.2,0.7-0.8c0-0.2,0-0.5,0-0.8v-2.1 c0-0.7,0-1,0-1.1c0-0.3-0.2-0.4-0.7-0.4V438h2.7c1.4,0,1.9,0.7,1.9,1.5c0,0.6-0.4,1.3-1.2,1.5l1,1.8c0.4,0.7,0.6,0.8,1.1,0.9v0.2 c-0.1,0-0.3,0-0.4,0c-1.1,0-1.6-0.4-2-1.4l-0.3-0.7c-0.3-0.7-0.5-0.7-1-0.7L-398.4,442L-398.4,442z"></path> <path class="st4" d="M-425.9,418.5"></path> <path class="st3" d="M-350.4,427.9"></path> <path class="st3" d="M-334.8,416.6"></path> <path class="st3" d="M-316.6,433.9"></path> <g> <path class="st5" d="M-426.4,411.5c0-0.4,0-0.8-0.2-1s-0.6-0.3-0.8-0.3c-0.7,0-1,0.4-1,0.5s-0.2,0.2-0.2,1.4v2 c0,1.7,0.6,1.9,1.2,1.9c0.3,0,1.1-0.1,1.1-1.4h0.9c0,2.2-1.5,2.2-2,2.2c-0.9,0-2.2-0.1-2.2-2.7v-2c0-2,0.9-2.5,2.2-2.5 c1.4,0,1.9,0.7,1.8,2.1h-0.8V411.5z"></path> <path class="st5" d="M-424.1,414v-2.3c0-1.4,0.7-2.3,2.2-2.3s2.2,0.9,2.2,2.3v2.3c0,1.9-0.7,2.7-2.2,2.7S-424.1,415.9-424.1,414z M-420.7,414.1v-2.4c0-1.4-1-1.5-1.3-1.5s-1.3,0-1.3,1.5v2.4c0,1.5,0.4,1.9,1.3,1.9S-420.7,415.6-420.7,414.1z"></path> <path class="st5" d="M-418.2,416.5v-6.9h0.9v6.2h2.5v0.8h-3.4V416.5z"></path> <path class="st5" d="M-414,416.5v-6.9h0.9v6.2h2.5v0.8h-3.4V416.5z"></path> <path class="st5" d="M-409.7,416.5v-6.9h3.6v0.8h-2.7v2.2h2.5v0.8h-2.5v2.4h2.7v0.8L-409.7,416.5L-409.7,416.5z"></path> <path class="st5" d="M-401.6,411.5c0-0.8-0.3-1.3-1.2-1.3c-0.3,0-1.3,0-1.3,1.5v2.4c0,1.5,0.4,1.9,1.3,1.9c0.6,0,1.1-0.2,1.2-0.3 v-2.1h-1.3v-0.8h2.2v3.4c-0.6,0.3-1.2,0.5-2.1,0.5c-1.5,0-2.2-0.8-2.2-2.7v-2.3c0-1.4,0.7-2.3,2.2-2.3s2.2,0.5,2.1,2L-401.6,411.5 L-401.6,411.5L-401.6,411.5z"></path> <path class="st5" d="M-399.1,416.5v-6.9h3.6v0.8h-2.7v2.2h2.5v0.8h-2.5v2.4h2.7v0.8L-399.1,416.5L-399.1,416.5z"></path> <path class="st5" d="M-392.2,414v-2.3c0-1.4,0.7-2.3,2.2-2.3s2.2,0.9,2.2,2.3v2.3c0,1.9-0.7,2.7-2.2,2.7 C-391.4,416.7-392.2,415.9-392.2,414z M-388.7,414.1v-2.4c0-1.4-1-1.5-1.3-1.5s-1.3,0-1.3,1.5v2.4c0,1.5,0.4,1.9,1.3,1.9 S-388.7,415.6-388.7,414.1z"></path> <path class="st5" d="M-386.3,416.5v-6.9h3.4v0.8h-2.6v2.2h2.4v0.8h-2.4v3.2h-0.8V416.5z"></path> <path class="st5" d="M-379.9,416.5v-6.9h3.6v0.8h-2.7v2.2h2.5v0.8h-2.5v2.4h2.7v0.8L-379.9,416.5L-379.9,416.5z"></path> <path class="st5" d="M-370.3,409.6v6.9h-1.2l-2.7-6l0,0v6h-0.8v-6.9h1.2l2.7,5.9l0,0v-5.9H-370.3z"></path> <path class="st5" d="M-365.3,411.5c0-0.8-0.3-1.3-1.2-1.3c-0.3,0-1.3,0-1.3,1.5v2.4c0,1.5,0.4,1.9,1.3,1.9c0.6,0,1.1-0.2,1.2-0.3 v-2.1h-1.3v-0.8h2.2v3.4c-0.6,0.3-1.2,0.5-2.1,0.5c-1.5,0-2.2-0.8-2.2-2.7v-2.3c0-1.4,0.7-2.3,2.2-2.3s2.2,0.5,2.1,2L-365.3,411.5 L-365.3,411.5L-365.3,411.5z"></path> <path class="st5" d="M-361.8,416.5h-0.9v-6.9h0.9V416.5z"></path> <path class="st5" d="M-355.3,409.6v6.9h-1.2l-2.7-6l0,0v6h-0.8v-6.9h1.2l2.7,5.9l0,0v-5.9H-355.3z"></path> <path class="st5" d="M-353.7,416.5v-6.9h3.6v0.8h-2.7v2.2h2.5v0.8h-2.5v2.4h2.7v0.8L-353.7,416.5L-353.7,416.5z"></path> <path class="st5" d="M-348.9,416.5v-6.9h3.6v0.8h-2.7v2.2h2.5v0.8h-2.5v2.4h2.7v0.8L-348.9,416.5L-348.9,416.5z"></path> <path class="st5" d="M-343.3,413.4v3.2h-0.9v-7h2.4c1.2,0,1.7,0.9,1.7,1.7c0,0.8-0.5,1.4-1.3,1.6l0,0c0.8,0.1,1.1,0.4,1.1,1.8 c0,0.3,0.1,1.4,0.2,1.8h-0.9c-0.2-0.5-0.2-1.4-0.3-2.3c-0.1-0.8-0.7-0.9-1-0.9L-343.3,413.4L-343.3,413.4z M-343.3,412.6h1.3 c0.6,0,0.9-0.5,0.9-1.2c0-0.5-0.2-1.1-0.9-1.1h-1.3V412.6z"></path> <path class="st5" d="M-337.8,416.5h-0.9v-6.9h0.9V416.5z"></path> <path class="st5" d="M-331.3,409.6v6.9h-1.2l-2.7-6l0,0v6h-0.8v-6.9h1.2l2.7,5.9l0,0v-5.9H-331.3z"></path> <path class="st5" d="M-326.4,411.5c0-0.8-0.3-1.3-1.2-1.3c-0.3,0-1.3,0-1.3,1.5v2.4c0,1.5,0.4,1.9,1.3,1.9c0.6,0,1.1-0.2,1.2-0.3 v-2.1h-1.3v-0.8h2.2v3.4c-0.6,0.3-1.2,0.5-2.1,0.5c-1.5,0-2.2-0.8-2.2-2.7v-2.3c0-1.4,0.7-2.3,2.2-2.3s2.2,0.5,2.1,2L-326.4,411.5 L-326.4,411.5z"></path> </g> <path class="st6" d="M-473.6,437.9l-9.8-13.4v9.8h3.9v9.7h-18.1v-9.7h3.7v-15.2h-3.7v-9.6h14.2l9.8,13.5l9.8-13.5h14.2v9.6h-3.7v15 h3.7v9.7h-18v-9.7h3.9v-9.8L-473.6,437.9L-473.6,437.9z"></path> </g> <g id="stroke"> <line class="st7" x1="-439.5" y1="409.5" x2="-439.5" y2="443.8"></line> </g> <g id="Aerospace"> <g> <path class="st3" d="M-425.4,420.4h2.1l4.2,13h-1.9l-0.9-3.1h-5l-1,3.1h-1.7L-425.4,420.4z M-424.4,421.9L-424.4,421.9l-2.1,6.9 h4.2L-424.4,421.9z"></path> <path class="st3" d="M-417.8,433.4v-13h6.7v1.4h-5v4.2h4.7v1.4h-4.7v4.5h5.1v1.4h-6.8L-417.8,433.4L-417.8,433.4z"></path> <path class="st3" d="M-407.6,427.4v6h-1.7v-13h4.5c2.3,0,3.1,1.6,3.1,3.2c0,1.5-0.8,2.7-2.4,3l0,0c1.5,0.2,2,0.7,2.1,3.3 c0,0.6,0.2,2.6,0.5,3.4h-1.7c-0.5-0.9-0.4-2.6-0.5-4.3c-0.1-1.6-1.4-1.7-2-1.7h-1.9V427.4z M-407.6,426h2.5c1.2,0,1.8-1,1.8-2.2 c0-0.9-0.5-2-1.7-2h-2.6L-407.6,426L-407.6,426z"></path> <path class="st3" d="M-399.7,428.6v-4.3c0-2.6,1.3-4.2,4.1-4.2s4.1,1.7,4.1,4.2v4.3c0,3.6-1.3,5-4.1,5S-399.7,432.2-399.7,428.6z M-393.3,428.7v-4.4c0-2.7-1.9-2.8-2.4-2.8s-2.4,0.1-2.4,2.8v4.4c0,2.8,0.8,3.6,2.4,3.6S-393.3,431.6-393.3,428.7z"></path> <path class="st3" d="M-387.9,429.5v0.4c0,1.8,1.1,2.3,2.2,2.3c1.3,0,2.3-0.6,2.3-2.1c0-2.9-5.8-2.6-5.8-6.5c0-2.3,1.6-3.5,3.8-3.5 c2.4,0,3.7,1.2,3.6,3.8h-1.7c0-1.4-0.4-2.4-2-2.4c-1,0-2,0.5-2,1.9c0,2.9,5.8,2.4,5.8,6.6c0,2.7-1.9,3.6-4,3.6 c-3.8,0-3.8-2.9-3.8-4.1C-389.5,429.5-387.9,429.5-387.9,429.5z"></path> <path class="st3" d="M-379.4,433.4v-13h3.9c1.7,0,3.6,0.6,3.6,3.7c0,3-2.3,3.6-3.6,3.6h-2.2v5.7L-379.4,433.4L-379.4,433.4z M-377.7,426.2h1.8c0.7,0,2.3-0.2,2.3-2.2s-1.5-2.2-1.8-2.2h-2.3V426.2z"></path> <path class="st3" d="M-368,420.4h2.1l4.2,13h-1.9l-0.9-3.1h-5l-1,3.1h-1.7L-368,420.4z M-367,421.9L-367,421.9l-2.1,6.9h4.2 L-367,421.9z"></path> <path class="st3" d="M-354.6,424c0-0.7,0-1.5-0.4-1.9c-0.3-0.4-1.1-0.6-1.5-0.6c-1.4,0-1.9,0.8-2,1c-0.1,0.1-0.4,0.5-0.4,2.7v3.5 c0,3.2,1,3.6,2.3,3.6c0.5,0,2-0.2,2.1-2.7h1.7c0.1,4.1-2.8,4.1-3.7,4.1c-1.6,0-4.1-0.1-4.1-5.1v-3.7c0-3.7,1.6-4.7,4.2-4.7 s3.6,1.3,3.4,3.9L-354.6,424L-354.6,424z"></path> <path class="st3" d="M-350.8,433.4v-13h6.7v1.4h-5v4.2h4.7v1.4h-4.7v4.5h5.1v1.4h-6.8L-350.8,433.4L-350.8,433.4z"></path> <path class="st3" d="M-336.5,433.4v-13h6.7v1.4h-5v4.2h4.7v1.4h-4.7v4.5h5.1v1.4h-6.8L-336.5,433.4L-336.5,433.4z"></path> <path class="st3" d="M-318.9,420.4v13h-2.3l-5.1-11.3l0,0v11.3h-1.5v-13h2.3l5.1,11.1l0,0v-11.1H-318.9z"></path> <path class="st3" d="M-310.1,423.9c0-1.5-0.6-2.4-2.3-2.4c-0.5,0-2.4,0.1-2.4,2.8v4.4c0,2.8,0.8,3.6,2.4,3.6c1.2,0,2-0.3,2.3-0.6 v-3.9h-2.4v-1.4h4.1v6.3c-1.1,0.6-2.3,1-4,1c-2.8,0-4.1-1.4-4.1-5v-4.3c0-2.6,1.3-4.2,4.1-4.2s4.1,1,4,3.7H-310.1z"></path> <path class="st3" d="M-303.9,433.4h-1.7v-13h1.7V433.4z"></path> <path class="st3" d="M-292.3,420.4v13h-2.3l-5.1-11.3l0,0v11.3h-1.5v-13h2.3l5.1,11.1l0,0v-11.1H-292.3z"></path> <path class="st3" d="M-289.7,433.4v-13h6.7v1.4h-5v4.2h4.7v1.4h-4.7v4.5h5.1v1.4h-6.8L-289.7,433.4L-289.7,433.4z"></path> <path class="st3" d="M-281.2,433.4v-13h6.7v1.4h-5v4.2h4.7v1.4h-4.7v4.5h5.1v1.4h-6.8L-281.2,433.4L-281.2,433.4z"></path> <path class="st3" d="M-271,427.4v6h-1.6v-13h4.5c2.3,0,3.1,1.6,3.1,3.2c0,1.5-0.8,2.7-2.4,3l0,0c1.5,0.2,2,0.7,2.1,3.3 c0,0.6,0.2,2.6,0.5,3.4h-1.8c-0.5-0.9-0.4-2.6-0.5-4.3c-0.1-1.6-1.4-1.7-2-1.7h-1.9L-271,427.4L-271,427.4z M-271,426h2.5 c1.2,0,1.8-1,1.8-2.2c0-0.9-0.5-2-1.7-2h-2.5L-271,426L-271,426z"></path> <path class="st3" d="M-261.2,433.4h-1.7v-13h1.7V433.4z"></path> <path class="st3" d="M-249.5,420.4v13h-2.3l-5.1-11.3l0,0v11.3h-1.5v-13h2.3l5.1,11.1l0,0v-11.1H-249.5z"></path> <path class="st3" d="M-240.7,423.9c0-1.5-0.6-2.4-2.3-2.4c-0.5,0-2.4,0.1-2.4,2.8v4.4c0,2.8,0.8,3.6,2.4,3.6c1.2,0,2-0.3,2.3-0.6 v-3.9h-2.4v-1.4h4.1v6.3c-1.1,0.6-2.3,1-4,1c-2.8,0-4.1-1.4-4.1-5v-4.3c0-2.6,1.3-4.2,4.1-4.2s4.1,1,4,3.7H-240.7z"></path> </g> </g> </svg>